<svg xmlns="http://www.w3.org/2000/svg" width="30" height="31" viewBox="0 0 30 31" fill="none">
  <path d="M21.25 18C21.5815 18 21.8995 17.8683 22.1339 17.6339C22.3683 17.3995 22.5 17.0815 22.5 16.75C22.5 16.4185 22.3683 16.1005 22.1339 15.8661C21.8995 15.6317 21.5815 15.5 21.25 15.5C20.9185 15.5 20.6005 15.6317 20.3661 15.8661C20.1317 16.1005 20 16.4185 20 16.75C20 17.0815 20.1317 17.3995 20.3661 17.6339C20.6005 17.8683 20.9185 18 21.25 18ZM21.25 23C21.5815 23 21.8995 22.8683 22.1339 22.6339C22.3683 22.3995 22.5 22.0815 22.5 21.75C22.5 21.4185 22.3683 21.1005 22.1339 20.8661C21.8995 20.6317 21.5815 20.5 21.25 20.5C20.9185 20.5 20.6005 20.6317 20.3661 20.8661C20.1317 21.1005 20 21.4185 20 21.75C20 22.0815 20.1317 22.3995 20.3661 22.6339C20.6005 22.8683 20.9185 23 21.25 23ZM16.25 16.75C16.25 17.0815 16.1183 17.3995 15.8839 17.6339C15.6495 17.8683 15.3315 18 15 18C14.6685 18 14.3505 17.8683 14.1161 17.6339C13.8817 17.3995 13.75 17.0815 13.75 16.75C13.75 16.4185 13.8817 16.1005 14.1161 15.8661C14.3505 15.6317 14.6685 15.5 15 15.5C15.3315 15.5 15.6495 15.6317 15.8839 15.8661C16.1183 16.1005 16.25 16.4185 16.25 16.75ZM16.25 21.75C16.25 22.0815 16.1183 22.3995 15.8839 22.6339C15.6495 22.8683 15.3315 23 15 23C14.6685 23 14.3505 22.8683 14.1161 22.6339C13.8817 22.3995 13.75 22.0815 13.75 21.75C13.75 21.4185 13.8817 21.1005 14.1161 20.8661C14.3505 20.6317 14.6685 20.5 15 20.5C15.3315 20.5 15.6495 20.6317 15.8839 20.8661C16.1183 21.1005 16.25 21.4185 16.25 21.75ZM8.75 18C9.08152 18 9.39946 17.8683 9.63388 17.6339C9.8683 17.3995 10 17.0815 10 16.75C10 16.4185 9.8683 16.1005 9.63388 15.8661C9.39946 15.6317 9.08152 15.5 8.75 15.5C8.41848 15.5 8.10054 15.6317 7.86612 15.8661C7.6317 16.1005 7.5 16.4185 7.5 16.75C7.5 17.0815 7.6317 17.3995 7.86612 17.6339C8.10054 17.8683 8.41848 18 8.75 18ZM8.75 23C9.08152 23 9.39946 22.8683 9.63388 22.6339C9.8683 22.3995 10 22.0815 10 21.75C10 21.4185 9.8683 21.1005 9.63388 20.8661C9.39946 20.6317 9.08152 20.5 8.75 20.5C8.41848 20.5 8.10054 20.6317 7.86612 20.8661C7.6317 21.1005 7.5 21.4185 7.5 21.75C7.5 22.0815 7.6317 22.3995 7.86612 22.6339C8.10054 22.8683 8.41848 23 8.75 23Z" fill="white"/>
  <path fill-rule="evenodd" clip-rule="evenodd" d="M8.75 2.6875C8.99864 2.6875 9.2371 2.78627 9.41291 2.96209C9.58873 3.1379 9.6875 3.37636 9.6875 3.625V4.57875C10.515 4.5625 11.4262 4.5625 12.4288 4.5625H17.57C18.5737 4.5625 19.485 4.5625 20.3125 4.57875V3.625C20.3125 3.37636 20.4113 3.1379 20.5871 2.96209C20.7629 2.78627 21.0014 2.6875 21.25 2.6875C21.4986 2.6875 21.7371 2.78627 21.9129 2.96209C22.0887 3.1379 22.1875 3.37636 22.1875 3.625V4.65875C22.5125 4.68375 22.82 4.715 23.1112 4.75375C24.5763 4.95125 25.7625 5.36625 26.6987 6.30125C27.6337 7.2375 28.0487 8.42375 28.2463 9.88875C28.4375 11.3138 28.4375 13.1325 28.4375 15.43V18.07C28.4375 20.3675 28.4375 22.1875 28.2463 23.6112C28.0487 25.0763 27.6337 26.2625 26.6987 27.1987C25.7625 28.1337 24.5763 28.5487 23.1112 28.7463C21.6863 28.9375 19.8675 28.9375 17.57 28.9375H12.43C10.1325 28.9375 8.3125 28.9375 6.88875 28.7463C5.42375 28.5487 4.2375 28.1337 3.30125 27.1987C2.36625 26.2625 1.95125 25.0763 1.75375 23.6112C1.5625 22.1863 1.5625 20.3675 1.5625 18.07V15.43C1.5625 13.1325 1.5625 11.3125 1.75375 9.88875C1.95125 8.42375 2.36625 7.2375 3.30125 6.30125C4.2375 5.36625 5.42375 4.95125 6.88875 4.75375C7.18 4.715 7.48875 4.68375 7.8125 4.65875V3.625C7.8125 3.37636 7.91127 3.1379 8.08709 2.96209C8.2629 2.78627 8.50136 2.6875 8.75 2.6875ZM7.1375 6.6125C5.88125 6.78125 5.15625 7.09875 4.6275 7.6275C4.09875 8.15625 3.78125 8.88125 3.6125 10.1388C3.58375 10.3513 3.56 10.5763 3.54 10.8125H26.46C26.44 10.575 26.4163 10.3513 26.3875 10.1375C26.2188 8.88125 25.9013 8.15625 25.3725 7.6275C24.8438 7.09875 24.1187 6.78125 22.8612 6.6125C21.5775 6.44 19.8837 6.4375 17.5 6.4375H12.5C10.1163 6.4375 8.42375 6.44 7.1375 6.6125ZM3.4375 15.5C3.4375 14.4325 3.4375 13.5037 3.45375 12.6875H26.5462C26.5625 13.5037 26.5625 14.4325 26.5625 15.5V18C26.5625 20.3837 26.56 22.0775 26.3875 23.3625C26.2188 24.6188 25.9013 25.3438 25.3725 25.8725C24.8438 26.4013 24.1187 26.7188 22.8612 26.8875C21.5775 27.06 19.8837 27.0625 17.5 27.0625H12.5C10.1163 27.0625 8.42375 27.06 7.1375 26.8875C5.88125 26.7188 5.15625 26.4013 4.6275 25.8725C4.09875 25.3438 3.78125 24.6187 3.6125 23.3612C3.44 22.0775 3.4375 20.3837 3.4375 18V15.5Z" fill="white"/>
</svg>