<svg xmlns="http://www.w3.org/2000/svg" width="32" height="33" viewBox="0 0 32 33" fill="none">
  <path fill-rule="evenodd" clip-rule="evenodd" d="M4.43077 0.5H4.30769C3.744 0.5 3.25908 0.5 2.83077 0.600915C2.16772 0.75934 1.56148 1.09822 1.07921 1.58001C0.59695 2.06181 0.257496 2.6677 0.0984614 3.33055C-9.08261e-08 3.75883 0 4.24125 0 4.80736V10.9607C0 11.5244 2.27065e-08 12.0093 0.100923 12.4375C0.25936 13.1005 0.598268 13.7067 1.0801 14.189C1.56193 14.6712 2.16786 15.0106 2.83077 15.1696C3.25908 15.2681 3.74154 15.2681 4.30769 15.2681H10.4615C11.0252 15.2681 11.5102 15.2681 11.9385 15.1672C12.6015 15.0088 13.2078 14.6699 13.69 14.1881C14.1723 13.7063 14.5117 13.1004 14.6708 12.4375C14.7692 12.0093 14.7692 11.5268 14.7692 10.9607V4.80736C14.7692 4.24371 14.7692 3.75883 14.6683 3.33055C14.5099 2.66755 14.171 2.06136 13.6891 1.57913C13.2073 1.0969 12.6014 0.757476 11.9385 0.598454C11.5102 0.5 11.0277 0.5 10.4615 0.5H4.43077ZM3.40431 2.99581C3.51015 2.97119 3.67508 2.96135 4.43077 2.96135H10.3385C11.0966 2.96135 11.2591 2.96873 11.3649 2.99581C11.586 3.04868 11.7882 3.16176 11.949 3.32252C12.1097 3.48327 12.2228 3.6854 12.2757 3.90651C12.3003 4.00988 12.3077 4.17233 12.3077 4.93043V10.8377C12.3077 11.5958 12.3003 11.7582 12.2732 11.864C12.2204 12.0852 12.1073 12.2873 11.9465 12.448C11.7857 12.6088 11.5836 12.7219 11.3625 12.7747C11.2615 12.7969 11.0991 12.8067 10.3385 12.8067H4.43077C3.67262 12.8067 3.51015 12.7994 3.40431 12.7723C3.18319 12.7194 2.98104 12.6063 2.82027 12.4456C2.65951 12.2848 2.54642 12.0827 2.49354 11.8616C2.47138 11.7607 2.46154 11.5982 2.46154 10.8377V4.93043C2.46154 4.17233 2.46892 4.00988 2.496 3.90405C2.54888 3.68294 2.66197 3.48081 2.82273 3.32006C2.9835 3.1593 3.18565 3.04622 3.40677 2.99335L3.40431 2.99581ZM21.6615 0.5H21.5385C20.9748 0.5 20.4898 0.5 20.0615 0.600915C19.3985 0.75934 18.7922 1.09822 18.31 1.58001C17.8277 2.06181 17.4883 2.6677 17.3292 3.33055C17.2308 3.75883 17.2308 4.24125 17.2308 4.80736V10.9607C17.2308 11.5244 17.2308 12.0093 17.3317 12.4375C17.4901 13.1005 17.829 13.7067 18.3109 14.189C18.7927 14.6712 19.3986 15.0106 20.0615 15.1696C20.4898 15.2681 20.9723 15.2681 21.5385 15.2681H27.6923C28.256 15.2681 28.7409 15.2681 29.1692 15.1672C29.8323 15.0088 30.4385 14.6699 30.9208 14.1881C31.4031 13.7063 31.7425 13.1004 31.9015 12.4375C32 12.0093 32 11.5268 32 10.9607V4.80736C32 4.24371 32 3.75883 31.8991 3.33055C31.7406 2.66755 31.4017 2.06136 30.9199 1.57913C30.4381 1.0969 29.8321 0.757476 29.1692 0.598454C28.7409 0.5 28.2585 0.5 27.6923 0.5H21.6615ZM20.6351 2.99581C20.7409 2.97119 20.9058 2.96135 21.6615 2.96135H27.5692C28.3274 2.96135 28.4898 2.96873 28.5957 2.99581C28.8168 3.04868 29.019 3.16176 29.1797 3.32252C29.3405 3.48327 29.4536 3.6854 29.5065 3.90651C29.5311 4.00988 29.5385 4.17233 29.5385 4.93043V10.8377C29.5385 11.5958 29.5286 11.7582 29.504 11.864C29.4511 12.0852 29.338 12.2873 29.1773 12.448C29.0165 12.6088 28.8144 12.7219 28.5932 12.7747C28.4898 12.7994 28.3274 12.8067 27.5692 12.8067H21.6615C20.9034 12.8067 20.7409 12.7994 20.6351 12.7723C20.414 12.7194 20.2118 12.6063 20.051 12.4456C19.8903 12.2848 19.7772 12.0827 19.7243 11.8616C19.7022 11.7607 19.6923 11.5982 19.6923 10.8377V4.93043C19.6923 4.17233 19.6997 4.00988 19.7268 3.90405C19.7796 3.68294 19.8927 3.48081 20.0535 3.32006C20.2143 3.1593 20.4164 3.04622 20.6375 2.99335L20.6351 2.99581ZM4.30769 17.7294H10.4615C11.0252 17.7294 11.5102 17.7294 11.9385 17.8304C12.6015 17.9888 13.2078 18.3277 13.69 18.8095C14.1723 19.2912 14.5117 19.8971 14.6708 20.56C14.7692 20.9883 14.7692 21.4707 14.7692 22.0368V28.1902C14.7692 28.7538 14.7692 29.2387 14.6683 29.667C14.5099 30.33 14.171 30.9362 13.6891 31.4184C13.2073 31.9006 12.6014 32.2401 11.9385 32.3991C11.5102 32.4975 11.0277 32.4975 10.4615 32.4975H4.30769C3.744 32.4975 3.25908 32.4975 2.83077 32.3966C2.16772 32.2382 1.56148 31.8993 1.07921 31.4175C0.59695 30.9357 0.257496 30.3298 0.0984614 29.667C-9.08261e-08 29.2387 0 28.7563 0 28.1902V22.0368C0 21.4732 2.27065e-08 20.9883 0.100923 20.56C0.25936 19.897 0.598268 19.2908 1.0801 18.8086C1.56193 18.3263 2.16786 17.9869 2.83077 17.8279C3.25908 17.7294 3.74154 17.7294 4.30769 17.7294ZM4.43077 20.1908C3.67262 20.1908 3.51015 20.1982 3.40431 20.2253C3.18319 20.2781 2.98104 20.3912 2.82027 20.552C2.65951 20.7127 2.54642 20.9148 2.49354 21.136C2.47138 21.2369 2.46154 21.3993 2.46154 22.1599V28.0671C2.46154 28.8252 2.46892 28.9877 2.496 29.0935C2.54888 29.3146 2.66197 29.5167 2.82273 29.6775C2.9835 29.8382 3.18565 29.9513 3.40677 30.0042C3.51015 30.0288 3.67262 30.0362 4.43077 30.0362H10.3385C11.0966 30.0362 11.2591 30.0263 11.3649 30.0017C11.586 29.9489 11.7882 29.8358 11.949 29.675C12.1097 29.5143 12.2228 29.3121 12.2757 29.091C12.3003 28.9877 12.3077 28.8252 12.3077 28.0671V22.1599C12.3077 21.4018 12.3003 21.2393 12.2732 21.1335C12.2204 20.9124 12.1073 20.7102 11.9465 20.5495C11.7857 20.3887 11.5836 20.2757 11.3625 20.2228C11.2615 20.2006 11.0991 20.1908 10.3385 20.1908H4.43077ZM21.6615 17.7294H21.5385C20.9748 17.7294 20.4898 17.7294 20.0615 17.8304C19.3985 17.9888 18.7922 18.3277 18.31 18.8095C17.8277 19.2912 17.4883 19.8971 17.3292 20.56C17.2308 20.9883 17.2308 21.4707 17.2308 22.0368V28.1902C17.2308 28.7538 17.2308 29.2387 17.3317 29.667C17.4901 30.33 17.829 30.9362 18.3109 31.4184C18.7927 31.9006 19.3986 32.2401 20.0615 32.3991C20.4898 32.5 20.9748 32.5 21.5385 32.5H27.6923C28.256 32.5 28.7409 32.5 29.1692 32.3991C29.8318 32.2403 30.4376 31.9012 30.9194 31.4194C31.4012 30.9377 31.7402 30.332 31.8991 29.6694C32 29.2412 32 28.7563 32 28.1926V22.0368C32 21.4732 32 20.9883 31.8991 20.56C31.7406 19.897 31.4017 19.2908 30.9199 18.8086C30.4381 18.3263 29.8321 17.9869 29.1692 17.8279C28.7409 17.7294 28.2585 17.7294 27.6923 17.7294H21.6615ZM20.6351 20.2253C20.7409 20.2006 20.9058 20.1908 21.6615 20.1908H27.5692C28.3274 20.1908 28.4898 20.1982 28.5957 20.2253C28.8168 20.2781 29.019 20.3912 29.1797 20.552C29.3405 20.7127 29.4536 20.9148 29.5065 21.136C29.5311 21.2393 29.5385 21.4018 29.5385 22.1599V28.0671C29.5385 28.8252 29.5286 28.9877 29.504 29.0935C29.4511 29.3146 29.338 29.5167 29.1773 29.6775C29.0165 29.8382 28.8144 29.9513 28.5932 30.0042C28.4898 30.0288 28.3274 30.0362 27.5692 30.0362H21.6615C20.9034 30.0362 20.7409 30.0263 20.6351 30.0017C20.414 29.9489 20.2118 29.8358 20.051 29.675C19.8903 29.5143 19.7772 29.3121 19.7243 29.091C19.7022 28.9901 19.6923 28.8277 19.6923 28.0671V22.1599C19.6923 21.4018 19.6997 21.2393 19.7268 21.1335C19.7796 20.9124 19.8927 20.7102 20.0535 20.5495C20.2143 20.3887 20.4164 20.2757 20.6375 20.2228L20.6351 20.2253Z" fill="#FEFEFE"/>
</svg>