<svg xmlns="http://www.w3.org/2000/svg" width="67" height="67" viewBox="0 0 67 67" fill="none">
  <rect width="67" height="67" rx="33.5" fill="#D0D0D0"/>
  <path d="M48.9235 42.1227C47.2658 39.9206 44.8989 38.3433 42.2133 37.651L42.1296 37.6332L40.1949 40.8644C40.1936 41.2946 40.0203 41.7069 39.7128 42.0111C39.4053 42.3153 38.9887 42.4868 38.5538 42.4881C37.6513 42.4881 36.9128 41.7574 36.0513 39.6076V39.5556C36.0513 39.0173 35.8352 38.5011 35.4505 38.1205C35.0658 37.7398 34.544 37.526 34 37.526C33.456 37.526 32.9342 37.7398 32.5495 38.1205C32.1648 38.5011 31.9487 39.0173 31.9487 39.5556V39.6092V39.606C31.0297 41.7574 30.2847 42.4864 29.3838 42.4864C28.949 42.4852 28.5323 42.3137 28.2248 42.0095C27.9174 41.7052 27.7441 41.293 27.7428 40.8627L25.8687 37.625C23.1647 38.3056 20.7762 39.8784 19.0978 42.0838L19.0749 42.1146C18.4096 43.1912 18.0392 44.4206 18 45.6819V45.6933C18.0082 45.9368 18 46.221 18 46.5051V49.7526C18 50.6138 18.3458 51.4398 18.9613 52.0488C19.5768 52.6579 20.4116 53 21.2821 53H46.7179C47.5884 53 48.4232 52.6579 49.0387 52.0488C49.6542 51.4398 50 50.6138 50 49.7526V46.5051C50 46.2226 49.9918 45.9368 50 45.6933C49.9587 44.4176 49.582 43.1747 48.9071 42.087L48.9251 42.1195L48.9235 42.1227ZM25.383 22.63C25.383 27.3713 28.3696 34.337 33.9984 34.337C39.5286 34.337 42.6137 27.3713 42.6137 22.63V22.5245C42.6137 21.405 42.3909 20.2966 41.9579 19.2623C41.525 18.2281 40.8904 17.2883 40.0904 16.4968C39.2903 15.7052 38.3406 15.0773 37.2953 14.6489C36.2501 14.2205 35.1297 14 33.9984 14C32.867 14 31.7467 14.2205 30.7014 14.6489C29.6561 15.0773 28.7064 15.7052 27.9064 16.4968C27.1063 17.2883 26.4717 18.2281 26.0388 19.2623C25.6058 20.2966 25.383 21.405 25.383 22.5245V22.6349V22.63Z" fill="white"/>
</svg>