<svg width="19" height="20" viewBox="0 0 19 20" fill="none" xmlns="http://www.w3.org/2000/svg">
<g clip-path="url(#clip0_29_667)">
<rect y="0.5" width="19" height="19" rx="6" fill="#D31407"/>
<path d="M8.62 11.824L8.188 3.4H10.852L10.402 11.824H8.62ZM9.52 16.126C9.1 16.126 8.752 15.988 8.476 15.712C8.2 15.436 8.062 15.106 8.062 14.722C8.062 14.338 8.2 14.014 8.476 13.75C8.752 13.474 9.1 13.336 9.52 13.336C9.94 13.336 10.282 13.474 10.546 13.75C10.81 14.014 10.942 14.338 10.942 14.722C10.942 15.106 10.81 15.436 10.546 15.712C10.282 15.988 9.94 16.126 9.52 16.126Z" fill="white"/>
</g>
<defs>
<clipPath id="clip0_29_667">
<rect y="0.5" width="19" height="19" rx="6" fill="white"/>
</clipPath>
</defs>
</svg>
