<svg xmlns="http://www.w3.org/2000/svg" width="19" height="20" viewBox="0 0 19 20" fill="none">
  <rect y="0.5" width="19" height="19" rx="6" fill="#32E744"/>
  <path d="M14.9924 6.10616C15.225 6.35461 15.3528 6.69898 15.3478 7.06354C15.3427 7.42809 15.2053 7.78299 14.9656 8.05018L8.88098 14.8306C8.72687 15.0024 8.54124 15.1363 8.33771 15.2224C8.13417 15.3086 7.91789 15.3448 7.7047 15.3285C7.49152 15.3122 7.28684 15.2437 7.10566 15.1281C6.92448 15.0125 6.77139 14.8527 6.65761 14.6604L4.44043 10.915C4.26343 10.6159 4.20623 10.246 4.2814 9.88676C4.35658 9.52749 4.55798 9.20827 4.8413 8.9993C5.12461 8.79034 5.46664 8.70876 5.79213 8.77251C6.11763 8.83626 6.39993 9.04011 6.57693 9.33923L8.08561 11.8883L13.2113 6.17674C13.33 6.04443 13.4702 5.93765 13.624 5.8625C13.7777 5.78734 13.942 5.74529 14.1074 5.73873C14.2728 5.73218 14.4361 5.76125 14.5879 5.8243C14.7398 5.88734 14.8772 5.98312 14.9924 6.10616Z" fill="white"/>
</svg>