<svg xmlns="http://www.w3.org/2000/svg" width="30" height="31" viewBox="0 0 30 31" fill="none">
  <path d="M21.133 2.75C19.6552 1.25 17.734 0.5 15.9606 0.5C14.1872 0.5 12.1182 1.25 10.7882 2.75L2.21675 11.15C-0.738916 14.15 -0.738916 18.8 2.21675 21.8C5.17241 24.8 9.75369 24.8 12.7094 21.8L21.133 13.25C23.9409 10.4 23.9409 5.6 21.133 2.75ZM19.064 11.15L14.9261 15.35L9.60591 10.1L3.10345 16.7C3.10345 15.5 3.39901 14.15 4.4335 13.25L12.8571 4.7C13.5961 3.95 14.7783 3.5 15.8128 3.5C16.8473 3.5 18.0296 3.95 18.9163 4.7C20.6897 6.65 20.6897 9.35 19.064 11.15ZM26.1576 8.15C26.1576 9.35 25.8621 10.4 25.5665 11.6C27.0443 13.4 27.0443 16.1 25.4187 17.75L21.2808 21.95L19.064 19.7L14.9261 23.9C13.0049 25.85 10.3448 26.9 7.83251 26.9C8.12808 27.35 8.42365 27.8 8.86699 28.25C11.8227 31.25 16.4039 31.25 19.3596 28.25L27.7833 19.7C30.7389 16.7 30.7389 12.05 27.7833 9.05C27.0443 8.75 26.601 8.45 26.1576 8.15Z" fill="white"/>
</svg>